<?xml version="1.0" standalone="no"?>
<!DOCTYPE svg PUBLIC "-//W3C//DTD SVG 20010904//EN"
 "http://www.w3.org/TR/2001/REC-SVG-20010904/DTD/svg10.dtd">
<svg version="1.0" xmlns="http://www.w3.org/2000/svg"
 width="152.000000pt" height="152.000000pt" viewBox="0 0 152.000000 152.000000"
 preserveAspectRatio="xMidYMid meet">
<metadata>
Created by potrace 1.11, written by Peter Selinger 2001-2013
</metadata>
<g transform="translate(0.000000,152.000000) scale(0.100000,-0.100000)"
fill="#000000" stroke="none">
<path d="M649 1173 c-2 -16 2 -79 7 -104 4 -22 1 -27 -21 -31 -28 -6 -30 -1
-39 82 -3 25 -5 46 -5 48 -2 7 -41 1 -46 -7 -3 -6 2 -80 12 -165 17 -151 18
-156 41 -156 30 0 36 19 25 84 -8 45 -7 56 4 61 34 12 40 4 47 -56 7 -74 9
-78 40 -72 28 6 28 -11 1 191 -8 62 -15 117 -15 122 0 12 -50 14 -51 3z"/>
<path d="M856 1172 c-2 -4 -7 -35 -11 -68 -3 -32 -8 -88 -12 -124 -12 -117
-11 -125 18 -128 29 -3 29 -4 45 197 3 41 8 83 10 95 5 27 -36 51 -50 28z"/>
<path d="M1057 1142 c-17 -29 -97 -294 -92 -302 3 -5 15 -10 25 -10 14 0 24
19 45 88 15 48 29 92 31 97 2 6 1 -38 -2 -98 l-5 -107 26 -12 c14 -6 27 -9 29
-7 2 2 25 71 51 153 37 119 44 151 33 157 -26 17 -35 8 -52 -54 -26 -95 -33
-96 -28 -4 l4 84 -31 11 c-17 6 -32 8 -34 4z"/>
<path d="M295 1088 c-52 -19 -56 -26 -36 -66 10 -21 37 -85 60 -144 42 -106
51 -117 80 -99 12 8 11 18 -7 65 -16 41 -18 56 -8 56 7 0 23 11 35 24 25 27
24 72 -4 126 -25 48 -59 59 -120 38z m73 -63 c19 -41 15 -75 -7 -75 -23 0 -58
85 -38 94 24 9 34 5 45 -19z"/>
<path d="M1340 944 c-21 -73 -24 -77 -91 -127 -38 -28 -69 -54 -69 -58 0 -3
10 -11 23 -16 20 -9 29 -6 63 23 21 18 42 33 46 34 3 0 0 -24 -8 -52 -18 -67
-18 -65 7 -79 28 -14 33 -5 54 86 13 59 20 74 48 93 17 12 48 36 67 52 29 25
32 31 20 40 -23 15 -34 12 -75 -20 -21 -17 -39 -29 -41 -27 -2 2 3 25 12 52
13 46 13 51 -3 62 -9 7 -20 13 -23 13 -4 0 -17 -34 -30 -76z"/>
<path d="M35 935 c-35 -34 -32 -70 8 -110 26 -26 45 -35 86 -41 56 -7 99 -33
87 -52 -10 -16 -31 -15 -46 3 -9 11 -16 12 -31 2 -26 -16 -24 -32 7 -56 35
-27 66 -26 100 2 68 59 11 144 -107 161 -53 8 -83 33 -69 56 8 12 13 13 30 2
15 -9 26 -10 41 -1 l21 11 -23 24 c-30 32 -73 31 -104 -1z"/>
<path d="M553 663 c-7 -3 -13 -11 -13 -19 0 -9 -4 -12 -10 -9 -5 3 -10 1 -10
-4 0 -17 39 -13 57 5 11 10 19 12 26 5 12 -12 -8 -41 -29 -41 -7 0 -15 -4 -19
-10 -3 -5 7 -5 25 2 18 6 34 17 37 24 10 26 -33 57 -64 47z"/>
<path d="M672 635 c-29 -13 -32 -17 -22 -35 9 -16 8 -19 -6 -13 -14 5 -15 3
-5 -15 7 -12 8 -22 4 -22 -4 0 10 -16 30 -35 20 -19 42 -35 47 -35 6 0 10 -5
10 -10 0 -15 -32 4 -65 38 -15 16 -36 28 -47 27 -20 -1 -78 -50 -78 -66 0 -5
-15 -9 -34 -9 -31 0 -34 -3 -44 -41 -6 -23 -8 -48 -5 -55 7 -18 56 -19 50 -1
-2 6 -12 11 -21 11 -19 -2 -20 6 -5 39 10 22 16 24 49 20 22 -3 40 -1 44 6 4
6 11 11 17 11 5 0 4 -9 -3 -20 -10 -16 -9 -24 8 -47 23 -31 74 -50 74 -27 0 8
-10 14 -23 14 -12 0 -28 9 -35 20 -10 17 -9 23 8 40 25 25 27 48 3 29 -16 -13
-17 -12 -5 3 12 15 16 15 50 1 20 -8 44 -17 55 -19 10 -2 27 -6 38 -9 10 -4
19 -2 19 4 0 7 8 7 25 -1 l25 -11 -25 -24 c-30 -30 -22 -53 17 -53 17 0 27 4
23 10 -3 6 -16 10 -28 10 -21 0 -21 0 3 24 18 16 29 21 38 14 8 -7 12 -7 12 0
0 20 -38 47 -84 61 -24 7 -47 19 -50 27 -3 8 -12 14 -20 14 -7 0 -16 7 -20 15
-3 8 -1 15 4 15 6 0 10 -3 10 -7 0 -15 71 -56 97 -58 17 0 37 -15 59 -40 19
-22 34 -35 34 -30 0 6 -3 15 -7 21 -5 5 -1 2 7 -6 8 -9 40 -30 71 -48 56 -32
99 -41 99 -22 0 6 -9 10 -21 10 -22 0 -81 37 -88 55 -2 5 -18 23 -35 39 -22
20 -24 26 -9 18 30 -16 35 -15 24 7 -8 14 -5 23 14 39 14 12 25 28 25 36 0 20
-27 34 -54 29 -17 -3 -17 -2 3 7 19 8 22 13 12 23 -15 15 -47 -4 -45 -27 1 -9
-2 -13 -7 -10 -5 3 -13 -6 -18 -19 -6 -14 -14 -28 -20 -31 -6 -4 -9 -12 -7
-19 1 -7 1 -9 -1 -4 -3 4 -11 7 -19 7 -9 0 -12 -5 -8 -11 4 -8 0 -8 -15 0 -24
13 -28 23 -6 15 8 -4 15 -1 15 5 0 6 -6 11 -14 11 -7 0 -25 11 -41 26 -32 30
-46 24 -19 -8 l18 -23 -22 21 c-27 24 -20 55 10 51 27 -3 33 16 12 37 -13 14
-19 14 -32 4 -12 -10 -14 -10 -8 0 9 15 -1 15 -42 -3z m78 -22 c0 -5 -13 -8
-29 -8 -16 0 -27 3 -24 8 2 4 15 7 29 7 13 0 24 -3 24 -7z m-63 -30 c-4 -3 -2
-12 4 -20 7 -8 8 -13 1 -13 -12 0 -23 26 -15 34 4 3 9 6 11 6 3 0 2 -3 -1 -7z
m217 -69 c3 -8 2 -12 -4 -9 -6 3 -10 10 -10 16 0 14 7 11 14 -7z"/>
<path d="M527 573 c-11 -18 4 -43 26 -43 18 0 19 1 5 13 -9 6 -18 19 -20 27
-3 9 -7 10 -11 3z"/>
</g>
</svg>
